<svg xmlns="http://www.w3.org/2000/svg"  viewBox="0 0 64 64" width="256px" height="256px"><path fill="#ed7899" d="M45.41,55.83l-12.82-9.4a1,1,0,0,0-1.18,0l-12.82,9.4A1,1,0,0,1,17,55V8a1,1,0,0,1,1-1H46a1,1,0,0,1,1,1V55A1,1,0,0,1,45.41,55.83Z"/><path fill="#e0678f" d="M45.41,48.83,33.77,40.3a3,3,0,0,0-3.55,0L18.59,48.83A1,1,0,0,1,17,48v7a1,1,0,0,0,1.59.81l12.82-9.4a1,1,0,0,1,1.18,0l12.82,9.4A1,1,0,0,0,47,55V48A1,1,0,0,1,45.41,48.83Z"/><path fill="#f283a5" d="M46,7H18a1,1,0,0,0-1,1v5a1,1,0,0,1,1-1H46a1,1,0,0,1,1,1V8A1,1,0,0,0,46,7Z"/><path fill="#8d6c9f" d="M45,6H19a3,3,0,0,0-3,3V55a2,2,0,0,0,3.18,1.61l12.22-9a1,1,0,0,1,1.18,0l12.23,9A2,2,0,0,0,48,55V9A3,3,0,0,0,45,6Zm1,49-12.23-9a3,3,0,0,0-3.55,0L18,55V9a1,1,0,0,1,1-1H45a1,1,0,0,1,1,1Z"/><path fill="#8d6c9f" d="M37 10a1 1 0 0 0-1 1v2a1 1 0 0 0 2 0V11A1 1 0 0 0 37 10zM42 10a1 1 0 0 0-1 1v2a1 1 0 0 0 2 0V11A1 1 0 0 0 42 10zM22 10a1 1 0 0 0-1 1v2a1 1 0 0 0 2 0V11A1 1 0 0 0 22 10zM27 10a1 1 0 0 0-1 1v2a1 1 0 0 0 2 0V11A1 1 0 0 0 27 10zM32 10a1 1 0 0 0-1 1v2a1 1 0 0 0 2 0V11A1 1 0 0 0 32 10z"/></svg>