<svg xmlns="http://www.w3.org/2000/svg"  viewBox="0 0 64 64" width="64px" height="64px"><path fill="#faefde" d="M23.24,4.94H52c1.657,0,3,1.343,3,3v48c0,1.657-1.343,3-3,3H14c-1.657,0-3-1.343-3-3V17.18 c0.001-0.795,0.317-1.558,0.88-2.12l9.24-9.24C21.682,5.257,22.445,4.941,23.24,4.94z"/><path fill="#fff7f0" d="M11,59l-0.15-9.46L54.34,6.06L55,29L25,59H11z M10.85,39.15L45.06,4.94l5.75,0.25L11,45 L10.85,39.15z M10.85,33.15L39,5h3L10.85,36.15V33.15z"/><path fill="#fff" d="M45.5,13l1.24,2.26L49,16.5l-2.26,1.24L45.5,20l-1.24-2.26L42,16.5l2.26-1.24L45.5,13z M30.42,11 l0.85,1.56l1.57,0.86l-1.57,0.85l-0.85,1.57l-0.86-1.57L28,13.42l1.56-0.86L30.42,11z M16.65,42l0.58,1.06l1.07,0.59l-1.07,0.58 l-0.58,1.07l-0.58-1.07L15,43.65l1.07-0.59L16.65,42z"/><path fill="#8d6c9f" d="M53,60H13c-1.654,0-3-1.346-3-3V17.021c0-1.069,0.417-2.073,1.172-2.829l9.021-9.021 C20.948,4.416,21.952,4,23.021,4H53c1.654,0,3,1.346,3,3v50C56,58.654,54.654,60,53,60z M23.021,6 c-0.535,0-1.037,0.208-1.415,0.585l-9.021,9.021C12.208,15.984,12,16.486,12,17.021V57c0,0.552,0.449,1,1,1h40 c0.552,0,1-0.448,1-1V7c0-0.551-0.448-1-1-1H23.021z"/><path fill="#8d6c9f" d="M37,24H21c-0.552,0-1-0.448-1-1s0.448-1,1-1h16c0.553,0,1,0.448,1,1S37.553,24,37,24z"/><path fill="#8d6c9f" d="M45,24h-4c-0.553,0-1-0.448-1-1s0.447-1,1-1h4c0.553,0,1,0.448,1,1S45.553,24,45,24z"/><path fill="#8d6c9f" d="M41,28H21c-0.552,0-1-0.448-1-1s0.448-1,1-1h20c0.553,0,1,0.448,1,1S41.553,28,41,28z"/><path fill="#8d6c9f" d="M43,34H21c-0.552,0-1-0.447-1-1c0-0.552,0.448-1,1-1h22c0.553,0,1,0.448,1,1 C44,33.553,43.553,34,43,34z"/><path fill="#8d6c9f" d="M33,38H21c-0.552,0-1-0.447-1-1s0.448-1,1-1h12c0.553,0,1,0.447,1,1S33.553,38,33,38z"/><g><path fill="#8d6c9f" d="M15,50c-0.552,0-1,0.448-1,1v2c0,0.552,0.448,1,1,1s1-0.448,1-1v-2C16,50.448,15.552,50,15,50z"/><path fill="#8d6c9f" d="M20,50c-0.552,0-1,0.448-1,1v2c0,0.552,0.448,1,1,1s1-0.448,1-1v-2C21,50.448,20.552,50,20,50z"/><path fill="#8d6c9f" d="M25,50c-0.552,0-1,0.448-1,1v2c0,0.552,0.448,1,1,1s1-0.448,1-1v-2C26,50.448,25.552,50,25,50z"/><path fill="#8d6c9f" d="M30,50c-0.552,0-1,0.448-1,1v2c0,0.552,0.448,1,1,1s1-0.448,1-1v-2C31,50.448,30.552,50,30,50z"/><path fill="#8d6c9f" d="M35,50c-0.552,0-1,0.448-1,1v2c0,0.552,0.448,1,1,1s1-0.448,1-1v-2C36,50.448,35.552,50,35,50z"/><path fill="#8d6c9f" d="M40,50c-0.552,0-1,0.448-1,1v2c0,0.552,0.448,1,1,1s1-0.448,1-1v-2C41,50.448,40.552,50,40,50z"/><path fill="#8d6c9f" d="M45,50c-0.552,0-1,0.448-1,1v2c0,0.552,0.448,1,1,1s1-0.448,1-1v-2C46,50.448,45.552,50,45,50z"/><path fill="#8d6c9f" d="M50,50c-0.552,0-1,0.448-1,1v2c0,0.552,0.448,1,1,1s1-0.448,1-1v-2C51,50.448,50.552,50,50,50z"/></g><g><path fill="#bbdef9" d="M23,4.654V17H10.654L23,4.654z"/><path fill="#8d6c9f" d="M21,18H9.995l0.007-1.007c0.008-1.06,0.423-2.055,1.17-2.801l9.021-9.021 c0.747-0.747,1.742-1.162,2.801-1.169L24,3.995V15C24,16.654,22.654,18,21,18z M12.28,16H21c0.551,0,1-0.449,1-1V6.28 c-0.142,0.084-0.274,0.187-0.394,0.306l-9.021,9.021C12.467,15.726,12.364,15.858,12.28,16z"/></g></svg>